<?xml version="1.0" encoding="UTF-8"?>
<svg width="320px" height="50px" viewBox="0 0 320 50" version="1.1" xmlns="http://www.w3.org/2000/svg" xmlns:xlink="http://www.w3.org/1999/xlink">
    <!-- Generator: Sketch 54.1 (76490) - https://sketchapp.com -->
    <title>bg_menu</title>
    <desc>Created with Sketch.</desc>
    <defs>
        <linearGradient x1="0%" y1="0%" x2="100%" y2="100%" id="linearGradient-1">
            <stop stop-color="#651FFF" offset="0%"></stop>
            <stop stop-color="#304FFE" offset="100%"></stop>
        </linearGradient>
        <path d="M24.628808,0 C25.1810927,1.01453063e-16 25.628808,0.44771525 25.628808,1 L25.628808,10.9459459 C25.628808,11.4982307 25.1810927,11.9459459 24.628808,11.9459459 L14.6828621,11.9459459 C14.1305773,11.9459459 13.6828621,11.4982307 13.6828621,10.9459459 L13.6828621,1 C13.6828621,0.44771525 14.1305773,-1.01453063e-16 14.6828621,0 L24.628808,0 Z M1,25.628808 C0.44771525,25.628808 9.09427066e-13,25.1810927 9.09494702e-13,24.628808 L9.09494702e-13,14.6828621 C9.09562337e-13,14.1305773 0.44771525,13.6828621 1,13.6828621 L10.9459459,13.6828621 C11.4982307,13.6828621 11.9459459,14.1305773 11.9459459,14.6828621 L11.9459459,24.628808 C11.9459459,25.1810927 11.4982307,25.628808 10.9459459,25.628808 L1,25.628808 Z M24.628808,25.628808 L14.6828621,25.628808 C14.1305773,25.628808 13.6828621,25.1810927 13.6828621,24.628808 L13.6828621,14.6828621 C13.6828621,14.1305773 14.1305773,13.6828621 14.6828621,13.6828621 L24.628808,13.6828621 C25.1810927,13.6828621 25.628808,14.1305773 25.628808,14.6828621 L25.628808,24.628808 C25.628808,25.1810927 25.1810927,25.628808 24.628808,25.628808 Z" id="path-2"></path>
        <rect id="path-4" x="279" y="12" width="11.9459459" height="11.9459459" rx="1"></rect>
        <linearGradient x1="0%" y1="50.0035618%" x2="100%" y2="50%" id="linearGradient-5">
            <stop stop-color="#F50057" offset="0%"></stop>
            <stop stop-color="#D500F9" offset="30.2368183%"></stop>
            <stop stop-color="#651FFF" offset="100%"></stop>
        </linearGradient>
    </defs>
    <g id="bg_menu" stroke="none" stroke-width="1" fill="none" fill-rule="evenodd">
        <path d="M120.09,50 L115.591352,50 C117.267564,47.9703459 118.586709,45.6349095 119.452591,43.0898878 L129.018192,7.41046377 C130.190097,3.03929215 134.151551,4.5240249e-14 138.67709,4.4408921e-14 L320.001184,0 L320.078125,50 L120.09,50 Z M143.752827,23.2686261 C143.752827,19.7142857 145.232043,17.745728 147.848064,17.745728 C150.121675,17.745728 151.559802,19.3178401 151.600891,21.5324675 L155.161967,21.5324675 L155.161967,21.190704 C155.161967,17.2946001 152.080267,14.6288448 147.820671,14.6288448 C142.835165,14.6288448 140,17.923445 140,23.2822967 L140,25.4149009 C140,30.7327409 142.835165,34 147.820671,34 C152.06657,34 155.161967,31.4025974 155.161967,27.6568694 L155.161967,27.3014354 L151.600891,27.3014354 C151.559802,29.393028 150.121675,30.8831169 147.848064,30.8831169 C145.232043,30.8831169 143.752827,28.9419002 143.752827,25.442242 L143.752827,23.2686261 Z M156.162378,33.644566 L159.764544,33.644566 L159.764544,25.1414901 C159.764544,23.3096377 160.791777,21.9699248 162.654494,21.9699248 C164.229585,21.9699248 165.503355,22.8585099 165.503355,25.0868079 L165.503355,33.644566 L169.105521,33.644566 L169.105521,24.3075871 C169.105521,20.7532468 167.009964,18.9077239 164.078925,18.9077239 C161.66835,18.9077239 160.380884,20.2611073 159.915205,21.2590567 L159.764544,21.2590567 L159.764544,14 L156.162378,14 L156.162378,33.644566 Z M178.501854,31.8810663 L178.652515,31.8810663 L178.652515,33.644566 L182.06293,33.644566 L182.06293,23.8427888 C182.06293,20.4661654 179.515391,18.9077239 176.173458,18.9077239 C171.982345,18.9077239 170.42095,21.1496924 170.311378,23.569378 L173.680704,23.569378 C173.776579,22.4073821 174.625759,21.6281613 176.104975,21.6281613 C177.625281,21.6281613 178.501854,22.4347232 178.501854,23.8838004 L178.501854,25.1961722 L174.954474,25.1961722 C171.585148,25.1961722 169.777217,26.8639781 169.777217,29.4613807 C169.777217,32.1954887 171.722112,33.8632946 174.557277,33.8632946 C176.693923,33.8632946 177.926603,32.9473684 178.501854,31.8810663 Z M175.721475,31.2385509 C174.516188,31.2385509 173.365686,30.582365 173.365686,29.2289815 C173.365686,28.1216678 174.146383,27.3561176 175.735171,27.3561176 L178.501854,27.3561176 L178.501854,28.887218 C178.501854,30.2952837 177.269173,31.2385509 175.721475,31.2385509 Z M183.556413,33.644566 L187.144882,33.644566 L187.144882,25.1414901 C187.144882,23.3096377 188.158419,21.9699248 190.021136,21.9699248 C191.568835,21.9699248 192.856301,22.8585099 192.856301,25.0868079 L192.856301,33.644566 L196.458466,33.644566 L196.458466,24.3075871 C196.458466,20.7532468 194.390303,18.9077239 191.43187,18.9077239 C189.007599,18.9077239 187.679044,20.2611073 187.213364,21.2590567 L187.062703,21.2590567 L187.062703,19.140123 L183.556413,19.140123 L183.556413,33.644566 Z M197.321913,26.9186603 C197.321913,31.1428571 199.75988,33.9043062 203.772939,33.9043062 C207.210748,33.9043062 209.539144,32.1818182 209.840465,28.9419002 L206.512229,28.9419002 C206.347871,30.0492139 205.567174,31.0198223 203.96469,31.0198223 C202.101973,31.0198223 200.937775,29.4613807 200.937775,26.9049897 L200.937775,25.7566644 C200.937775,23.2822967 202.07458,21.7511962 203.950993,21.7511962 C205.293245,21.7511962 206.251996,22.7901572 206.443746,23.9931647 L209.771983,23.9931647 C209.689804,21.2043746 207.457284,18.8803828 203.786636,18.8803828 C199.732487,18.8803828 197.321913,21.696514 197.321913,25.7156528 L197.321913,26.9186603 Z M210.703912,33.644566 L214.306077,33.644566 L214.306077,25.1414901 C214.306077,23.3096377 215.333311,21.9699248 217.196028,21.9699248 C218.771119,21.9699248 220.044889,22.8585099 220.044889,25.0868079 L220.044889,33.644566 L223.647054,33.644566 L223.647054,24.3075871 C223.647054,20.7532468 221.551498,18.9077239 218.620458,18.9077239 C216.209884,18.9077239 214.922418,20.2611073 214.456738,21.2590567 L214.306077,21.2590567 L214.306077,14 L210.703912,14 L210.703912,33.644566 Z M233.043387,31.8810663 L233.194048,31.8810663 L233.194048,33.644566 L236.604464,33.644566 L236.604464,23.8427888 C236.604464,20.4661654 234.056925,18.9077239 230.714991,18.9077239 C226.523879,18.9077239 224.962484,21.1496924 224.852912,23.569378 L228.222238,23.569378 C228.318113,22.4073821 229.167293,21.6281613 230.646509,21.6281613 C232.166815,21.6281613 233.043387,22.4347232 233.043387,23.8838004 L233.043387,25.1961722 L229.496008,25.1961722 C226.126682,25.1961722 224.318751,26.8639781 224.318751,29.4613807 C224.318751,32.1954887 226.263646,33.8632946 229.098811,33.8632946 C231.235456,33.8632946 232.468137,32.9473684 233.043387,31.8810663 Z M230.263009,31.2385509 C229.057721,31.2385509 227.90722,30.582365 227.90722,29.2289815 C227.90722,28.1216678 228.687917,27.3561176 230.276705,27.3561176 L233.043387,27.3561176 L233.043387,28.887218 C233.043387,30.2952837 231.810707,31.2385509 230.263009,31.2385509 Z M238.097947,33.644566 L241.686416,33.644566 L241.686416,25.1414901 C241.686416,23.3096377 242.699953,21.9699248 244.56267,21.9699248 C246.110368,21.9699248 247.397834,22.8585099 247.397834,25.0868079 L247.397834,33.644566 L251,33.644566 L251,24.3075871 C251,20.7532468 248.931836,18.9077239 245.973404,18.9077239 C243.549133,18.9077239 242.220577,20.2611073 241.754898,21.2590567 L241.604237,21.2590567 L241.604237,19.140123 L238.097947,19.140123 L238.097947,33.644566 Z M303.628808,12 L293.682862,12 C293.130577,12 292.682862,12.4477153 292.682862,13 L292.682862,22.9459459 C292.682862,23.4982307 293.130577,23.9459459 293.682862,23.9459459 L303.628808,23.9459459 C304.181093,23.9459459 304.628808,23.4982307 304.628808,22.9459459 L304.628808,13 C304.628808,12.4477153 304.181093,12 303.628808,12 Z M280,37.628808 L289.945946,37.628808 C290.498231,37.628808 290.945946,37.1810927 290.945946,36.628808 L290.945946,26.6828621 C290.945946,26.1305773 290.498231,25.6828621 289.945946,25.6828621 L280,25.6828621 C279.447715,25.6828621 279,26.1305773 279,26.6828621 L279,36.628808 C279,37.1810927 279.447715,37.628808 280,37.628808 Z M303.628808,37.628808 C304.181093,37.628808 304.628808,37.1810927 304.628808,36.628808 L304.628808,26.6828621 C304.628808,26.1305773 304.181093,25.6828621 303.628808,25.6828621 L293.682862,25.6828621 C293.130577,25.6828621 292.682862,26.1305773 292.682862,26.6828621 L292.682862,36.628808 C292.682862,37.1810927 293.130577,37.628808 293.682862,37.628808 L303.628808,37.628808 Z M280,12 C279.447715,12 279,12.4477153 279,13 L279,22.9459459 C279,23.4982307 279.447715,23.9459459 280,23.9459459 L289.945946,23.9459459 C290.498231,23.9459459 290.945946,23.4982307 290.945946,22.9459459 L290.945946,13 C290.945946,12.4477153 290.498231,12 289.945946,12 L280,12 Z" id="Rectangle-2" fill="#09041C" opacity="0.92"></path>
        <path d="M270.392358,0 L320.078125,0 L320.078125,50 L257.078125,50 L270.392358,0 Z M303.628808,12 L293.682862,12 C293.130577,12 292.682862,12.4477153 292.682862,13 L292.682862,22.9459459 C292.682862,23.4982307 293.130577,23.9459459 293.682862,23.9459459 L303.628808,23.9459459 C304.181093,23.9459459 304.628808,23.4982307 304.628808,22.9459459 L304.628808,13 C304.628808,12.4477153 304.181093,12 303.628808,12 Z M280,37.628808 L289.945946,37.628808 C290.498231,37.628808 290.945946,37.1810927 290.945946,36.628808 L290.945946,26.6828621 C290.945946,26.1305773 290.498231,25.6828621 289.945946,25.6828621 L280,25.6828621 C279.447715,25.6828621 279,26.1305773 279,26.6828621 L279,36.628808 C279,37.1810927 279.447715,37.628808 280,37.628808 Z M303.628808,37.628808 C304.181093,37.628808 304.628808,37.1810927 304.628808,36.628808 L304.628808,26.6828621 C304.628808,26.1305773 304.181093,25.6828621 303.628808,25.6828621 L293.682862,25.6828621 C293.130577,25.6828621 292.682862,26.1305773 292.682862,26.6828621 L292.682862,36.628808 C292.682862,37.1810927 293.130577,37.628808 293.682862,37.628808 L303.628808,37.628808 Z M280,12 C279.447715,12 279,12.4477153 279,13 L279,22.9459459 C279,23.4982307 279.447715,23.9459459 280,23.9459459 L289.945946,23.9459459 C290.498231,23.9459459 290.945946,23.4982307 290.945946,22.9459459 L290.945946,13 C290.945946,12.4477153 290.498231,12 289.945946,12 L280,12 Z" id="Rectangle-3" fill="#FFFFFF" opacity="0.08"></path>
        <g id="menu" transform="translate(279.000000, 12.000000)">
            <mask id="mask-3" fill="white">
                <use xlink:href="#path-2"></use>
            </mask>
            <use id="Rectangle-10" fill="url(#linearGradient-1)" opacity="0.9" xlink:href="#path-2"></use>
            <rect id="Rectangle" fill-opacity="0.2" fill="#FFFFFF" mask="url(#mask-3)" x="-6" y="-6" width="26" height="26" rx="7"></rect>
        </g>
        <g id="Rectangle" opacity="0.9" fill="#FFFFFF">
            <use xlink:href="#path-4"></use>
            <use fill-opacity="0.1" xlink:href="#path-4"></use>
        </g>
        <path d="M143.752827,23.2686261 L143.752827,25.442242 C143.752827,28.9419002 145.232043,30.8831169 147.848064,30.8831169 C150.121675,30.8831169 151.559802,29.393028 151.600891,27.3014354 L155.161967,27.3014354 L155.161967,27.6568694 C155.161967,31.4025974 152.06657,34 147.820671,34 C142.835165,34 140,30.7327409 140,25.4149009 L140,23.2822967 C140,17.923445 142.835165,14.6288448 147.820671,14.6288448 C152.080267,14.6288448 155.161967,17.2946001 155.161967,21.190704 L155.161967,21.5324675 L151.600891,21.5324675 C151.559802,19.3178401 150.121675,17.745728 147.848064,17.745728 C145.232043,17.745728 143.752827,19.7142857 143.752827,23.2686261 Z M156.162378,33.644566 L156.162378,14 L159.764544,14 L159.764544,21.2590567 L159.915205,21.2590567 C160.380884,20.2611073 161.66835,18.9077239 164.078925,18.9077239 C167.009964,18.9077239 169.105521,20.7532468 169.105521,24.3075871 L169.105521,33.644566 L165.503355,33.644566 L165.503355,25.0868079 C165.503355,22.8585099 164.229585,21.9699248 162.654494,21.9699248 C160.791777,21.9699248 159.764544,23.3096377 159.764544,25.1414901 L159.764544,33.644566 L156.162378,33.644566 Z M178.501854,31.8810663 C177.926603,32.9473684 176.693923,33.8632946 174.557277,33.8632946 C171.722112,33.8632946 169.777217,32.1954887 169.777217,29.4613807 C169.777217,26.8639781 171.585148,25.1961722 174.954474,25.1961722 L178.501854,25.1961722 L178.501854,23.8838004 C178.501854,22.4347232 177.625281,21.6281613 176.104975,21.6281613 C174.625759,21.6281613 173.776579,22.4073821 173.680704,23.569378 L170.311378,23.569378 C170.42095,21.1496924 171.982345,18.9077239 176.173458,18.9077239 C179.515391,18.9077239 182.06293,20.4661654 182.06293,23.8427888 L182.06293,33.644566 L178.652515,33.644566 L178.652515,31.8810663 L178.501854,31.8810663 Z M175.721475,31.2385509 C177.269173,31.2385509 178.501854,30.2952837 178.501854,28.887218 L178.501854,27.3561176 L175.735171,27.3561176 C174.146383,27.3561176 173.365686,28.1216678 173.365686,29.2289815 C173.365686,30.582365 174.516188,31.2385509 175.721475,31.2385509 Z M183.556413,33.644566 L183.556413,19.140123 L187.062703,19.140123 L187.062703,21.2590567 L187.213364,21.2590567 C187.679044,20.2611073 189.007599,18.9077239 191.43187,18.9077239 C194.390303,18.9077239 196.458466,20.7532468 196.458466,24.3075871 L196.458466,33.644566 L192.856301,33.644566 L192.856301,25.0868079 C192.856301,22.8585099 191.568835,21.9699248 190.021136,21.9699248 C188.158419,21.9699248 187.144882,23.3096377 187.144882,25.1414901 L187.144882,33.644566 L183.556413,33.644566 Z M197.321913,26.9186603 L197.321913,25.7156528 C197.321913,21.696514 199.732487,18.8803828 203.786636,18.8803828 C207.457284,18.8803828 209.689804,21.2043746 209.771983,23.9931647 L206.443746,23.9931647 C206.251996,22.7901572 205.293245,21.7511962 203.950993,21.7511962 C202.07458,21.7511962 200.937775,23.2822967 200.937775,25.7566644 L200.937775,26.9049897 C200.937775,29.4613807 202.101973,31.0198223 203.96469,31.0198223 C205.567174,31.0198223 206.347871,30.0492139 206.512229,28.9419002 L209.840465,28.9419002 C209.539144,32.1818182 207.210748,33.9043062 203.772939,33.9043062 C199.75988,33.9043062 197.321913,31.1428571 197.321913,26.9186603 Z M210.703912,33.644566 L210.703912,14 L214.306077,14 L214.306077,21.2590567 L214.456738,21.2590567 C214.922418,20.2611073 216.209884,18.9077239 218.620458,18.9077239 C221.551498,18.9077239 223.647054,20.7532468 223.647054,24.3075871 L223.647054,33.644566 L220.044889,33.644566 L220.044889,25.0868079 C220.044889,22.8585099 218.771119,21.9699248 217.196028,21.9699248 C215.333311,21.9699248 214.306077,23.3096377 214.306077,25.1414901 L214.306077,33.644566 L210.703912,33.644566 Z M233.043387,31.8810663 C232.468137,32.9473684 231.235456,33.8632946 229.098811,33.8632946 C226.263646,33.8632946 224.318751,32.1954887 224.318751,29.4613807 C224.318751,26.8639781 226.126682,25.1961722 229.496008,25.1961722 L233.043387,25.1961722 L233.043387,23.8838004 C233.043387,22.4347232 232.166815,21.6281613 230.646509,21.6281613 C229.167293,21.6281613 228.318113,22.4073821 228.222238,23.569378 L224.852912,23.569378 C224.962484,21.1496924 226.523879,18.9077239 230.714991,18.9077239 C234.056925,18.9077239 236.604464,20.4661654 236.604464,23.8427888 L236.604464,33.644566 L233.194048,33.644566 L233.194048,31.8810663 L233.043387,31.8810663 Z M230.263009,31.2385509 C231.810707,31.2385509 233.043387,30.2952837 233.043387,28.887218 L233.043387,27.3561176 L230.276705,27.3561176 C228.687917,27.3561176 227.90722,28.1216678 227.90722,29.2289815 C227.90722,30.582365 229.057721,31.2385509 230.263009,31.2385509 Z M238.097947,33.644566 L238.097947,19.140123 L241.604237,19.140123 L241.604237,21.2590567 L241.754898,21.2590567 C242.220577,20.2611073 243.549133,18.9077239 245.973404,18.9077239 C248.931836,18.9077239 251,20.7532468 251,24.3075871 L251,33.644566 L247.397834,33.644566 L247.397834,25.0868079 C247.397834,22.8585099 246.110368,21.9699248 244.56267,21.9699248 C242.699953,21.9699248 241.686416,23.3096377 241.686416,25.1414901 L241.686416,33.644566 L238.097947,33.644566 Z" id="Chanchan" fill="url(#linearGradient-5)" opacity="0.8"></path>
    </g>
</svg>