<?xml version="1.0" encoding="UTF-8"?>
<svg width="40px" height="40px" viewBox="0 0 40 40" version="1.1" xmlns="http://www.w3.org/2000/svg" xmlns:xlink="http://www.w3.org/1999/xlink">
    <!-- Generator: Sketch 54.1 (76490) - https://sketchapp.com -->
    <title>active</title>
    <desc>Created with Sketch.</desc>
    <defs>
        <linearGradient x1="100%" y1="22.1411623%" x2="0%" y2="77.8588377%" id="linearGradient-1">
            <stop stop-color="#8C9EFF" offset="0%"></stop>
            <stop stop-color="#82B1FF" offset="100%"></stop>
        </linearGradient>
    </defs>
    <g id="active" stroke="none" stroke-width="1" fill="none" fill-rule="evenodd">
        <path d="M20.5647583,12.0677616 C20.4300557,11.9847775 20.2618076,11.9774822 20.120461,12.0488068 L12.4844871,15.8969521 L10.1898519,15.8969521 C9.53373002,15.8969521 9,16.4306821 9,17.0868039 L9,22.9132155 C9,23.5692722 9.53373002,24.1030674 10.1898519,24.1030674 L12.4842917,24.1030674 L20.120461,27.9512126 C20.1851417,27.9838461 20.2554894,28 20.3256416,28 C20.4086908,28 20.491675,27.9772673 20.5647583,27.9322578 C20.6995262,27.8493388 20.7815984,27.7023253 20.7815984,27.5440432 L20.7815984,12.4559763 C20.7815984,12.2976941 20.6995262,12.1506806 20.5647583,12.0677616 Z M9.91191363,22.9132155 L9.91191363,17.0868039 C9.91191363,16.9361428 10.0391907,16.8088657 10.1898519,16.8088657 L12.1369829,16.8088657 L12.1369829,23.1910886 L10.1898519,23.1910886 C10.0391907,23.1910886 9.91191363,23.0638115 9.91191363,22.9132155 Z M19.8696848,26.8036345 L13.0488314,23.3663715 L13.0488314,16.633648 L19.8696848,13.1963199 L19.8696848,26.8036345 Z M24.07425,19.7225 C24.02475,19.673 24,19.59875 24,19.54925 C24,19.49975 24.02475,19.4255 24.07425,19.376 L24.42075,19.0295 C24.51975,18.9305 24.66825,18.9305 24.76725,19.0295 L24.792,19.05425 L26.15325,20.5145 C26.20275,20.564 26.277,20.564 26.3265,20.5145 L29.643,17.07425 L29.66775,17.07425 C29.76675,16.97525 29.91525,16.97525 30.01425,17.07425 L30.36075,17.42075 C30.45975,17.51975 30.45975,17.66825 30.36075,17.76725 L26.40075,21.87575 C26.35125,21.92525 26.30175,21.95 26.2275,21.95 C26.15325,21.95 26.10375,21.92525 26.05425,21.87575 L24.12375,19.79675 L24.07425,19.7225 Z" id="Shape" fill="url(#linearGradient-1)" fill-rule="nonzero"></path>
    </g>
</svg>