<?xml version="1.0" encoding="UTF-8"?>
<svg width="40px" height="40px" viewBox="0 0 40 40" version="1.1" xmlns="http://www.w3.org/2000/svg" xmlns:xlink="http://www.w3.org/1999/xlink">
    <!-- Generator: Sketch 54.1 (76490) - https://sketchapp.com -->
    <title>mute</title>
    <desc>Created with Sketch.</desc>
    <defs>
        <linearGradient x1="100%" y1="19.4014835%" x2="0%" y2="80.5985165%" id="linearGradient-1">
            <stop stop-color="#EA80FC" offset="0%"></stop>
            <stop stop-color="#FF80AB" offset="100%"></stop>
        </linearGradient>
    </defs>
    <g id="mute" stroke="none" stroke-width="1" fill="none" fill-rule="evenodd">
        <path d="M20.5647583,12.0677616 C20.4300557,11.9847775 20.2618076,11.9774822 20.120461,12.0488068 L12.4844871,15.8969521 L10.1898519,15.8969521 C9.53373002,15.8969521 9,16.4306821 9,17.0868039 L9,22.9132155 C9,23.5692722 9.53373002,24.1030674 10.1898519,24.1030674 L12.4842917,24.1030674 L20.120461,27.9512126 C20.1851417,27.9838461 20.2554894,28 20.3256416,28 C20.4086908,28 20.491675,27.9772673 20.5647583,27.9322578 C20.6995262,27.8493388 20.7815984,27.7023253 20.7815984,27.5440432 L20.7815984,12.4559763 C20.7815984,12.2976941 20.6995262,12.1506806 20.5647583,12.0677616 Z M9.91191363,22.9132155 L9.91191363,17.0868039 C9.91191363,16.9361428 10.0391907,16.8088657 10.1898519,16.8088657 L12.1369829,16.8088657 L12.1369829,23.1910886 L10.1898519,23.1910886 C10.0391907,23.1910886 9.91191363,23.0638115 9.91191363,22.9132155 Z M19.8696848,26.8036345 L13.0488314,23.3663715 L13.0488314,16.633648 L19.8696848,13.1963199 L19.8696848,26.8036345 Z M27.6235561,19.9999772 L29.3193246,21.6958108 C29.4973431,21.8738294 29.4973431,22.1625152 29.3192594,22.3405989 C29.2302827,22.4295756 29.1135578,22.4741291 28.996898,22.4741291 C28.880173,22.4741291 28.7635132,22.4295756 28.6744714,22.3405338 L26.978768,20.6447652 L25.2829995,22.3405338 C25.1939576,22.4295756 25.0772327,22.4741291 24.9605729,22.4741291 C24.843913,22.4741291 24.7271881,22.4295756 24.6382114,22.3405989 C24.4601277,22.1625152 24.4601277,21.8738294 24.6381462,21.6958108 L26.3339148,19.9999772 L24.6382114,18.3041435 C24.4601928,18.1261249 24.4601928,17.8374391 24.6382765,17.6593554 C24.8162951,17.481402 25.105046,17.4814671 25.2830646,17.6594206 L26.9788331,19.3551891 L28.6745365,17.6594206 C28.8526202,17.4813369 29.1413711,17.481402 29.3193246,17.6593554 C29.4974083,17.8374391 29.4974083,18.1261249 29.3193897,18.3041435 L27.6235561,19.9999772 Z" id="Shape" fill="url(#linearGradient-1)" fill-rule="nonzero"></path>
    </g>
</svg>